<?xml version="1.0" encoding="utf-8"?>
<!-- Generator: Adobe Illustrator 27.0.0, SVG Export Plug-In . SVG Version: 6.00 Build 0)  -->
<svg version="1.1" id="Layer_1" xmlns="http://www.w3.org/2000/svg" xmlns:xlink="http://www.w3.org/1999/xlink" x="0px" y="0px"
	 viewBox="0 0 266 65" style="enable-background:new 0 0 266 65;" xml:space="preserve">
<style type="text/css">
	.st0{fill:#FFFFFF;}
</style>
<g>
	<path class="st0" d="M8.2,8.58v18.99h17.48v8.61H8.2v27.47h-8.65V-0.07H8.2l35.4-0.04v8.65L8.2,8.58z"/>
	<path class="st0" d="M49.84,19.06l0.13,8.61c-0.09,0-0.73,0.12-1.92,0.36c-1.19,0.24-2.55,0.74-4.08,1.49s-2.9,1.9-4.1,3.41
		c-1.2,1.52-1.81,3.55-1.81,6.11h-0.13l-0.18,24.61l-8.61-0.09l0.27-44.72l8.65,0.04l-0.04,4.24c2.23-1.43,4.41-2.46,6.55-3.1
		C46.72,19.38,48.48,19.06,49.84,19.06z"/>
	<path class="st0" d="M91.49,50.58l0.13,0.04c-0.03,0.06-0.06,0.1-0.09,0.13c-0.03,0.03-0.06,0.07-0.09,0.13L91.4,63.64l-8.65-0.09
		v-3.21c-2.38,1.46-4.93,2.44-7.67,2.94c-0.59,0.12-1.19,0.21-1.78,0.27c-0.3,0.03-0.58,0.06-0.85,0.09h-0.49
		c-0.48,0.03-0.95,0.04-1.43,0.04h-0.71c-1.69-0.03-3.42-0.21-5.17-0.54c-1.78-0.33-3.63-1.05-5.53-2.18
		c-1.93-1.28-3.39-2.9-4.37-4.86c-1.55-3.63-2.32-6.96-2.32-9.99v-0.31c-0.09-1.96-0.13-3.88-0.13-5.75c0-1.16,0.01-2.29,0.04-3.39
		c0.03-1.81,0.07-3.61,0.13-5.4c0.12-4.07,0.19-8.12,0.22-12.13l8.61,0.04c-0.03,4.13-0.1,8.23-0.22,12.31l-0.09,5.35
		c-0.03,1.25-0.04,2.48-0.04,3.7c0,1.61,0.03,3.2,0.09,4.77c0.12,2.85,0.56,5.11,1.34,6.78c0.36,0.71,0.83,1.25,1.43,1.61
		c0.62,0.45,1.5,0.77,2.63,0.98c1.34,0.27,2.65,0.4,3.92,0.4c1.07,0,2.13-0.09,3.17-0.27c3.92-0.77,7.03-2.87,9.32-6.29l0.22-29.7
		l8.61,0.04L91.49,50.58z"/>
	<path class="st0" d="M118.2,52.9l8.38,2.14c-0.56,2.32-1.77,4.39-3.61,6.2c-1.93,1.67-4.03,2.72-6.29,3.17
		c-1.1,0.21-2.18,0.31-3.25,0.31c-1.07,0-2.14-0.1-3.21-0.31c-2.11-0.33-4.21-1.28-6.29-2.85c-1.07-0.86-1.95-2.1-2.63-3.7
		c-0.33-0.86-0.49-1.71-0.49-2.54V23.43h-6.6v-8.65h6.6V1.44h8.61v13.33h6.6v8.65h-6.6v31.43h0.04c0,0.03,0.01,0.05,0.02,0.07
		c0.01,0.02,0.04,0.02,0.07,0.02c0.21,0.21,0.52,0.4,0.94,0.58c0.42,0.18,0.88,0.31,1.38,0.4c0.54,0.09,1.06,0.13,1.56,0.13
		c0.51,0,1-0.04,1.47-0.13c0.95-0.21,1.68-0.55,2.18-1.03C117.59,54.43,117.96,53.76,118.2,52.9z M109.41,55.04v0.04h0.04
		L109.41,55.04z"/>
	<path class="st0" d="M137.41,0.11l0.04,63.67h-8.65V0.11H137.41z"/>
	<path class="st0" d="M179.73,63.82h-8.65V60.7c-3.06,2.08-6.45,3.43-10.17,4.06c-1.31,0.24-2.62,0.36-3.92,0.36
		c-2.44,0-4.9-0.42-7.4-1.25c-1.93-0.65-3.75-1.81-5.44-3.48c-1.72-1.78-2.76-3.94-3.12-6.47c-0.03-0.12-0.04-0.22-0.04-0.31
		c-0.06-0.51-0.09-1-0.09-1.47c0.03-0.62,0.07-1.17,0.13-1.65c0.12-0.98,0.33-1.96,0.62-2.94c0.62-1.99,1.58-3.8,2.85-5.44
		c2.79-3.21,5.96-5.35,9.5-6.42c3.39-1.16,6.75-1.84,10.08-2.05c1.43-0.12,2.85-0.18,4.28-0.18c0.68,0,1.38,0.02,2.1,0.04
		c-0.24-0.68-0.55-1.31-0.94-1.87c-1.07-1.63-2.62-2.76-4.64-3.39c-1.43-0.42-2.97-0.62-4.64-0.62c-0.77,0-1.56,0.04-2.36,0.13
		c-2.56,0.21-4.59,0.83-6.11,1.87c-1.37,0.95-2.11,2.33-2.23,4.15l-8.61-0.4c0.09-2.08,0.62-4.09,1.61-6.02
		c1.07-1.96,2.47-3.55,4.19-4.77c3.48-2.17,6.94-3.31,10.39-3.43c0.98-0.12,1.98-0.18,2.99-0.18c2.35,0,4.8,0.34,7.36,1.03
		c3.8,1.16,6.88,3.43,9.23,6.82c1.1,1.63,1.9,3.36,2.41,5.17c0.24,0.89,0.43,1.84,0.58,2.85l0.04,0.4V63.82z M159.44,56.29
		c4.76-0.92,8.64-3.39,11.64-7.4v-6.73c-0.95-0.06-1.89-0.09-2.81-0.09c-4.01,0-7.8,0.58-11.37,1.74c-2.47,0.86-4.34,2.08-5.62,3.66
		c-0.59,0.77-1.04,1.65-1.34,2.63c-0.15,0.48-0.27,0.98-0.36,1.52c-0.03,0.27-0.04,0.46-0.04,0.58v0.58
		c0.09,0.6,0.37,1.14,0.85,1.65c0.51,0.56,1.25,1.03,2.23,1.38c1.31,0.48,2.72,0.71,4.24,0.71
		C157.69,56.51,158.55,56.44,159.44,56.29z"/>
	<path class="st0" d="M222.76,36.85c0.09,2.08,0.13,4.13,0.13,6.15c0,1.01-0.01,2.01-0.04,2.99c-0.06,1.81-0.1,3.61-0.13,5.4
		c-0.12,4.07-0.19,8.12-0.22,12.13l-8.65-0.04c0.03-4.13,0.1-8.23,0.22-12.31c0.06-1.78,0.1-3.57,0.13-5.35
		c0.03-1.1,0.04-2.18,0.04-3.25c0-1.78-0.04-3.52-0.13-5.22c-0.12-2.85-0.56-5.13-1.34-6.82c-0.36-0.68-0.83-1.22-1.43-1.61
		c-0.62-0.42-1.49-0.74-2.59-0.98c-1.28-0.24-2.56-0.36-3.83-0.36c-1.1,0-2.18,0.09-3.25,0.27c-3.92,0.77-7.04,2.87-9.36,6.29
		l-0.18,29.7l-8.65-0.04l0.22-31.7l-0.13-0.04c0.03-0.06,0.06-0.1,0.09-0.13c0-0.03,0.01-0.07,0.04-0.13l0.09-12.75l8.65,0.09
		l-0.04,3.21c2.41-1.46,4.98-2.44,7.71-2.94c0.59-0.12,1.19-0.21,1.78-0.27c0.27-0.03,0.55-0.06,0.85-0.09
		c0.15,0,0.31-0.01,0.49-0.04c0.71-0.03,1.41-0.04,2.1-0.04c1.72,0.06,3.45,0.25,5.17,0.58c1.81,0.33,3.67,1.06,5.57,2.18
		c1.93,1.28,3.39,2.9,4.37,4.86c1.52,3.57,2.27,6.84,2.27,9.81v0.18C222.71,36.65,222.73,36.76,222.76,36.85z"/>
	<path class="st0" d="M266.14,34.31c0,0.09,0.01,0.16,0.04,0.22c0.03,0.09,0.04,0.19,0.04,0.31h-0.09l-0.27,29.07l-4.77-0.04
		c-1.49,0.18-2.97,0.3-4.46,0.36c-0.89,0.06-1.8,0.09-2.72,0.09c-1.13,0-2.26-0.04-3.39-0.13c-4.16-0.18-8.31-1.2-12.44-3.08
		c-2.08-1.01-3.98-2.38-5.71-4.1c-1.72-1.75-3.05-3.75-3.97-5.97c-0.89-2.23-1.44-4.46-1.65-6.69c-0.09-0.89-0.13-1.8-0.13-2.72
		c0-1.28,0.09-2.57,0.27-3.88c0.54-4.61,2.47-8.74,5.8-12.4c3.51-3.51,7.68-5.53,12.53-6.06c0.77-0.09,1.53-0.13,2.27-0.13
		c3.51,0,6.88,0.92,10.12,2.76l0.18-21.8l8.65,0.09L266.14,34.31z M241.93,53.35c3.57,1.58,7.51,2.36,11.82,2.36
		c1.16,0,2.35-0.06,3.57-0.18l0.18-20.2c-0.59-2.38-1.81-4.25-3.66-5.62c-1.9-1.28-4.03-1.92-6.38-1.92c-0.42,0-0.85,0.02-1.29,0.04
		c-2.88,0.33-5.31,1.49-7.27,3.48c-1.9,2.02-3.05,4.55-3.43,7.58c-0.12,0.89-0.18,1.78-0.18,2.68c0,0.62,0.03,1.26,0.09,1.92
		c0.15,1.52,0.48,2.91,0.98,4.19C237.43,50.18,239.28,52.07,241.93,53.35z"/>
</g>
</svg>
